<svg width="248" height="165" viewBox="0 0 248 165" fill="none" xmlns="http://www.w3.org/2000/svg">
<g filter="url(#filter0_dd_87_7)">
<path d="M57.6435 62.1532C57.6387 61.8909 57.6327 61.6291 57.6327 61.3663C57.6327 36.3113 79.5148 16 106.507 16C129.769 16 149.233 31.0845 154.17 51.2899C158.774 48.8975 164.077 47.5277 169.729 47.5277C187.363 47.5277 201.658 60.7969 201.658 77.1652C201.658 77.8341 201.626 78.496 201.579 79.1539C214.67 83.6649 224 95.3614 224 109.083C224 126.71 208.605 141 189.614 141L66.9821 141C43.2438 140.999 24 123.137 24 101.103C24 82.0453 38.3959 66.1116 57.6435 62.1532Z" fill="#DBAF2C"/>
</g>
<g clip-path="url(#clip0_87_7)">
<path d="M154.351 96.4988C156.073 94.3501 156.816 91.5329 156.313 88.7629C155.788 85.8643 154.009 83.4345 151.503 82.0578C152.323 79.1997 151.784 76.0635 149.957 73.6261C148.149 71.2157 145.27 69.7765 142.255 69.7765C141.828 69.7765 141.402 69.805 140.981 69.8617C139.501 66.373 136.041 64 132.128 64C129.025 64 126.26 65.4774 124.5 67.7659C122.741 65.4774 119.976 64 116.872 64C112.957 64 109.497 66.3752 108.018 69.8664C107.595 69.8099 107.169 69.7816 106.739 69.7816C103.679 69.7816 100.873 71.1838 99.0404 73.6293C97.2143 76.0667 96.6766 79.2026 97.4962 82.0603C94.99 83.4369 93.2114 85.8672 92.6858 88.7675C92.1848 91.5369 92.9275 94.353 94.6499 96.5012C92.9271 98.6499 92.1848 101.467 92.6872 104.237C93.2127 107.136 94.9916 109.566 97.4976 110.942C96.6776 113.8 97.2161 116.937 99.0435 119.374C100.851 121.784 103.731 123.223 106.745 123.223C107.173 123.223 107.598 123.195 108.019 123.138C109.5 126.627 112.959 129 116.872 129C119.976 129 122.741 127.523 124.5 125.234C126.26 127.523 129.025 129 132.128 129C136.043 129 139.504 126.625 140.983 123.134C141.405 123.19 141.832 123.218 142.262 123.218C145.322 123.218 148.128 121.816 149.96 119.371C151.786 116.933 152.324 113.797 151.504 110.94C154.011 109.563 155.789 107.133 156.315 104.232C156.816 101.463 156.073 98.647 154.351 96.4988ZM122.51 119.383C122.51 122.491 119.981 125.02 116.872 125.02C114.179 125.02 111.853 123.104 111.341 120.463L111.314 120.323C111.262 120.014 111.235 119.699 111.235 119.383C111.235 118.465 111.454 117.581 111.865 116.789C113.362 117.708 115.085 118.2 116.885 118.2L116.885 114.221C115.379 114.221 113.963 113.634 112.898 112.569C111.834 111.505 111.247 110.089 111.247 108.583L107.268 108.584C107.268 110.535 107.846 112.396 108.919 113.974C107.868 115.512 107.291 117.321 107.259 119.22C107.089 119.235 106.917 119.244 106.745 119.244C104.95 119.244 103.303 118.421 102.227 116.986C100.903 115.22 100.734 112.827 101.796 110.89L102.268 110.028L101.464 108.195L100.571 107.934C98.5065 107.329 96.9863 105.641 96.6031 103.527C96.2676 101.677 96.8818 99.7923 98.2122 98.4898H107.462C107.841 100.299 108.734 101.962 110.072 103.3C111.816 105.039 114.221 106.117 116.873 106.117H122.51V119.383V119.383ZM122.51 102.138H116.873C113.871 102.138 111.41 99.7789 111.244 96.8173C111.244 96.8075 111.243 96.7978 111.242 96.7879C111.237 96.6925 111.235 96.5966 111.235 96.5001C111.235 94.9941 111.822 93.5784 112.886 92.5138L110.073 89.6995C108.735 91.0373 107.841 92.7006 107.462 94.5102H98.2098C96.881 93.2081 96.2673 91.3249 96.6016 89.4766C96.9849 87.3621 98.5052 85.6731 100.569 85.0689L101.463 84.8074L102.267 82.974L101.794 82.1123C100.733 80.1752 100.902 77.782 102.225 76.0156C103.299 74.5828 104.944 73.7611 106.739 73.7611C106.913 73.7611 107.087 73.7698 107.259 73.7857C107.292 75.6825 107.869 77.489 108.919 79.0259C107.846 80.6043 107.267 82.4654 107.267 84.4162L111.247 84.4168C111.247 82.9109 111.834 81.4955 112.898 80.4307C113.963 79.3659 115.379 78.7794 116.885 78.7794C116.885 78.7794 116.885 74.7998 116.885 74.7998C115.085 74.7998 113.361 75.2926 111.865 76.2115C111.454 75.4194 111.235 74.5354 111.235 73.6173C111.235 73.3026 111.262 72.988 111.314 72.6804L111.341 72.5376C111.853 69.8964 114.179 67.9796 116.872 67.9796C119.981 67.9796 122.51 70.5086 122.51 73.6173V102.138V102.138ZM126.49 73.6176C126.49 70.5086 129.019 67.9796 132.128 67.9796C134.821 67.9796 137.148 69.8964 137.659 72.5376L137.686 72.6754C137.738 72.9847 137.766 73.3008 137.766 73.6173C137.766 74.5354 137.547 75.4194 137.135 76.2114C135.639 75.2925 133.915 74.7996 132.115 74.7997L132.115 78.7793C133.621 78.7791 135.037 79.3656 136.102 80.4307C137.167 81.4951 137.753 82.9108 137.753 84.4166L141.733 84.4161C141.733 82.4653 141.154 80.6041 140.081 79.0257C141.132 77.4875 141.71 75.679 141.741 73.7805C141.912 73.7647 142.083 73.7562 142.255 73.7562C144.051 73.7562 145.697 74.5791 146.773 76.0137C148.097 77.7797 148.267 80.1727 147.205 82.1098L146.731 82.9738L147.131 83.8741L147.537 84.8052L148.43 85.0668C150.494 85.6713 152.015 87.3595 152.398 89.4731C152.733 91.3233 152.119 93.2081 150.789 94.5105H141.539C141.16 92.7009 140.267 91.0379 138.929 89.6999C137.184 87.9617 134.78 86.8829 132.128 86.8829H126.49V73.6176V73.6176ZM152.399 103.523C152.015 105.638 150.495 107.327 148.431 107.931L147.54 108.192L146.735 110.028L147.206 110.888C148.268 112.825 148.099 115.218 146.775 116.984C145.702 118.417 144.057 119.239 142.262 119.239C142.087 119.239 141.914 119.23 141.741 119.214C141.709 117.318 141.131 115.511 140.082 113.974C141.155 112.396 141.733 110.535 141.733 108.584L137.754 108.583C137.753 110.089 137.167 111.505 136.102 112.569C135.038 113.634 133.622 114.221 132.116 114.221C132.116 114.221 132.115 118.2 132.115 118.2C133.916 118.2 135.639 117.708 137.135 116.789C137.547 117.581 137.766 118.465 137.766 119.383C137.766 119.699 137.738 120.015 137.686 120.325L137.66 120.463C137.148 123.104 134.821 125.02 132.128 125.02C129.019 125.02 126.49 122.491 126.49 119.383V90.8622H132.128C135.13 90.8622 137.591 93.2211 137.756 96.1827C137.757 96.1925 137.758 96.2022 137.758 96.2121C137.763 96.3075 137.766 96.4034 137.766 96.4999C137.766 98.0059 137.179 99.4215 136.114 100.486L138.928 103.3C140.266 101.963 141.159 100.299 141.538 98.4898H150.791C152.119 99.7919 152.733 101.675 152.399 103.523Z" fill="white"/>
</g>
<defs>
<filter id="filter0_dd_87_7" x="0" y="0" width="248" height="165" filterUnits="userSpaceOnUse" color-interpolation-filters="sRGB">
<feFlood flood-opacity="0" result="BackgroundImageFix"/>
<feColorMatrix in="SourceAlpha" type="matrix" values="0 0 0 0 0 0 0 0 0 0 0 0 0 0 0 0 0 0 127 0" result="hardAlpha"/>
<feOffset dx="-4" dy="4"/>
<feGaussianBlur stdDeviation="10"/>
<feColorMatrix type="matrix" values="0 0 0 0 0 0 0 0 0 0 0 0 0 0 0 0 0 0 0.2 0"/>
<feBlend mode="normal" in2="BackgroundImageFix" result="effect1_dropShadow_87_7"/>
<feColorMatrix in="SourceAlpha" type="matrix" values="0 0 0 0 0 0 0 0 0 0 0 0 0 0 0 0 0 0 127 0" result="hardAlpha"/>
<feOffset dx="4" dy="4"/>
<feGaussianBlur stdDeviation="10"/>
<feColorMatrix type="matrix" values="0 0 0 0 0 0 0 0 0 0 0 0 0 0 0 0 0 0 0.2 0"/>
<feBlend mode="normal" in2="effect1_dropShadow_87_7" result="effect2_dropShadow_87_7"/>
<feBlend mode="normal" in="SourceGraphic" in2="effect2_dropShadow_87_7" result="shape"/>
</filter>
<clipPath id="clip0_87_7">
<rect width="65" height="65" fill="white" transform="translate(92 64)"/>
</clipPath>
</defs>
</svg>
