<svg width="248" height="166" viewBox="0 0 248 166" fill="none" xmlns="http://www.w3.org/2000/svg">
<g filter="url(#filter0_dd_87_2)">
<path d="M57.6435 62.9368C57.6387 62.6746 57.6327 62.4128 57.6327 62.15C57.6327 37.095 79.5148 16.7837 106.507 16.7837C129.769 16.7837 149.233 31.8682 154.17 52.0736C158.774 49.6812 164.077 48.3114 169.729 48.3114C187.363 48.3114 201.658 61.5806 201.658 77.9489C201.658 78.6178 201.626 79.2797 201.579 79.9376C214.67 84.4486 224 96.1451 224 109.866C224 127.493 208.605 141.784 189.614 141.784H66.9821C43.2438 141.783 24 123.921 24 101.886C24 82.829 38.3959 66.8953 57.6435 62.9368Z" fill="#DBAF2C"/>
</g>
<path d="M147.875 107.981C147.973 107.786 148.029 107.555 148.029 107.311C148.029 107.067 147.973 106.836 147.871 106.632L145.925 103.797C145.889 103.744 145.868 103.683 145.868 103.614C145.868 103.545 145.889 103.484 145.925 103.431L147.875 100.587C147.973 100.392 148.029 100.161 148.029 99.9172C148.029 99.6734 147.973 99.4419 147.871 99.2387C147.709 98.7919 147.355 98.4425 146.912 98.2759L143.569 97.0531C143.443 97.0084 143.349 96.9028 143.325 96.7728V93.3562C143.297 92.8484 143.033 92.4097 142.639 92.1416C142.37 91.9587 142.049 91.8531 141.7 91.8531C141.684 91.8531 141.672 91.8531 141.655 91.8531H141.009L137.556 92.7469C137.516 92.7631 137.467 92.7753 137.414 92.7753C137.361 92.7753 137.313 92.7631 137.268 92.7469L135.038 90.1062C134.717 89.7609 134.262 89.5497 133.758 89.5497C133.254 89.5497 132.799 89.765 132.478 90.1062L130.244 92.7469C130.203 92.7631 130.154 92.7753 130.102 92.7753C130.049 92.7753 130 92.7631 129.955 92.7469H129.959L126.303 91.8125H125.897C125.889 91.8125 125.877 91.8125 125.864 91.8125C125.511 91.8125 125.186 91.9181 124.914 92.1009C124.524 92.3691 124.26 92.8078 124.231 93.3116V96.7281C124.207 96.8622 124.114 96.9678 123.992 97.0125L120.656 98.2312C120.112 98.3247 119.661 98.6781 119.442 99.1575C119.34 99.3647 119.283 99.5922 119.283 99.8359C119.283 100.08 119.34 100.311 119.442 100.514L121.388 103.35C121.424 103.403 121.444 103.464 121.444 103.533C121.444 103.602 121.424 103.663 121.388 103.716L119.438 106.559C119.34 106.754 119.283 106.986 119.283 107.23C119.283 107.473 119.34 107.705 119.442 107.908C119.604 108.355 119.958 108.704 120.4 108.871L123.744 110.094C123.87 110.138 123.963 110.244 123.988 110.374V113.791C124.016 114.298 124.28 114.737 124.674 115.005C124.946 115.188 125.271 115.294 125.625 115.294C125.637 115.294 125.645 115.294 125.657 115.294H126.307L127.567 115.009V130L133.782 121.875L139.754 130V115.009L141.014 115.334H141.46C141.469 115.334 141.481 115.334 141.493 115.334C141.846 115.334 142.171 115.229 142.444 115.046C142.834 114.778 143.098 114.339 143.126 113.835V110.419C143.15 110.285 143.244 110.179 143.366 110.134L146.701 108.916C147.229 108.81 147.66 108.461 147.875 107.993V107.981Z" fill="white"/>
<path d="M91 69.0625V117.812H123.5L123.053 117.609C121.907 116.817 121.148 115.546 121.063 114.087V113.75H95.0625V73.125H151.938V113.75H146.128V114.075C146.043 115.542 145.283 116.817 144.154 117.601L143.812 117.812H156V69.0625H91V69.0625Z" fill="white"/>
<path d="M121.184 93.0719C121.213 91.5403 121.989 90.1956 123.159 89.3831C123.224 89.3628 123.281 89.3588 123.338 89.3588C123.394 89.3588 123.451 89.3628 123.504 89.375H103.188V93.4375H121.184V93.0719V93.0719Z" fill="white"/>
<path d="M117.081 97.5H103.188V101.562H116.838C116.537 101.01 116.362 100.352 116.362 99.6531C116.362 99.125 116.464 98.6253 116.647 98.1622C116.703 97.9063 116.866 97.6666 117.081 97.5Z" fill="white"/>
<path d="M103.188 81.25H143.812V85.3125H103.188V81.25Z" fill="white"/>
<defs>
<filter id="filter0_dd_87_2" x="0" y="0.783691" width="248" height="165" filterUnits="userSpaceOnUse" color-interpolation-filters="sRGB">
<feFlood flood-opacity="0" result="BackgroundImageFix"/>
<feColorMatrix in="SourceAlpha" type="matrix" values="0 0 0 0 0 0 0 0 0 0 0 0 0 0 0 0 0 0 127 0" result="hardAlpha"/>
<feOffset dx="-4" dy="4"/>
<feGaussianBlur stdDeviation="10"/>
<feColorMatrix type="matrix" values="0 0 0 0 0 0 0 0 0 0 0 0 0 0 0 0 0 0 0.2 0"/>
<feBlend mode="normal" in2="BackgroundImageFix" result="effect1_dropShadow_87_2"/>
<feColorMatrix in="SourceAlpha" type="matrix" values="0 0 0 0 0 0 0 0 0 0 0 0 0 0 0 0 0 0 127 0" result="hardAlpha"/>
<feOffset dx="4" dy="4"/>
<feGaussianBlur stdDeviation="10"/>
<feColorMatrix type="matrix" values="0 0 0 0 0 0 0 0 0 0 0 0 0 0 0 0 0 0 0.2 0"/>
<feBlend mode="normal" in2="effect1_dropShadow_87_2" result="effect2_dropShadow_87_2"/>
<feBlend mode="normal" in="SourceGraphic" in2="effect2_dropShadow_87_2" result="shape"/>
</filter>
</defs>
</svg>
