<svg width="248" height="166" viewBox="0 0 248 166" fill="none" xmlns="http://www.w3.org/2000/svg">
<g filter="url(#filter0_dd_87_5)">
<path d="M57.6435 62.9368C57.6387 62.6746 57.6327 62.4128 57.6327 62.15C57.6327 37.095 79.5148 16.7837 106.507 16.7837C129.769 16.7837 149.233 31.8682 154.17 52.0736C158.774 49.6812 164.077 48.3114 169.729 48.3114C187.363 48.3114 201.658 61.5806 201.658 77.9489C201.658 78.6178 201.626 79.2797 201.579 79.9376C214.67 84.4486 224 96.1451 224 109.866C224 127.493 208.605 141.784 189.614 141.784H66.9821C43.2438 141.783 24 123.921 24 101.886C24 82.829 38.3959 66.8953 57.6435 62.9368Z" fill="#DBAF2C"/>
</g>
<path d="M144.027 108.46L132.628 106.389C132.2 106.303 131.755 106.427 131.418 106.706L125.394 111.728C124.298 112.639 122.705 112.639 121.609 111.728C121.571 111.697 121.531 111.666 121.489 111.638L118.418 109.571C117.74 109.111 116.823 109.293 116.368 109.971C115.911 110.648 116.09 111.567 116.768 112.022L119.782 114.05C120.457 114.596 121.226 114.953 122.026 115.159V122.614C122.026 123.431 122.686 124.091 123.503 124.091C124.32 124.091 124.98 123.431 124.98 122.614V115.158C125.804 114.945 126.596 114.573 127.288 113.998L132.783 109.417L143.501 111.364C145.606 111.75 147.136 113.584 147.136 115.727V125.568C147.136 126.383 146.474 127.045 145.659 127.045H101.341C100.525 127.045 99.8636 126.383 99.8636 125.568V115.727C99.8636 113.584 101.394 111.751 103.502 111.366L114.901 109.294C115.704 109.148 116.236 108.38 116.09 107.578C115.945 106.774 115.174 106.237 114.373 106.389L102.973 108.46C99.4604 109.101 96.9092 112.156 96.9092 115.727V125.568C96.9092 128.012 98.8976 130 101.341 130H145.659C148.103 130 150.091 128.011 150.091 125.568V115.727C150.091 112.156 147.54 109.101 144.027 108.46Z" fill="white"/>
<path d="M119.068 85.6818C119.884 85.6818 120.545 85.0204 120.545 84.2046C120.545 83.3887 119.884 82.7274 119.068 82.7274C118.252 82.7274 117.591 83.3887 117.591 84.2046C117.591 85.0204 118.252 85.6818 119.068 85.6818Z" fill="white"/>
<path d="M127.932 85.6818C128.748 85.6818 129.409 85.0204 129.409 84.2046C129.409 83.3887 128.748 82.7274 127.932 82.7274C127.116 82.7274 126.455 83.3887 126.455 84.2046C126.455 85.0204 127.116 85.6818 127.932 85.6818Z" fill="white"/>
<path d="M138.273 78.2954V76.8182C138.273 70.3019 132.971 65 126.454 65H120.545C114.029 65 108.727 70.3019 108.727 76.8182V78.2954C106.284 78.2954 104.295 80.2839 104.295 82.7272V85.6818C104.295 88.1253 106.284 90.1136 108.727 90.1136H109.677C109.785 90.8331 109.86 91.3043 109.869 91.3604C110.148 93.8349 111.138 96.1704 112.734 98.116L113.05 98.5015C115.607 101.62 119.415 103.409 123.5 103.409C125.778 103.409 128.032 102.836 130.019 101.752C130.734 101.36 130.999 100.463 130.607 99.7468C130.216 99.0333 129.32 98.7674 128.602 99.1589C127.048 100.005 125.284 100.454 123.5 100.454C120.305 100.454 117.328 99.0599 115.335 96.6268L115.019 96.2413C113.787 94.7374 113.02 92.9351 112.796 90.96C112.784 90.8906 111.682 83.9622 111.682 81.2499V79.7726V76.8182C111.682 71.9299 115.657 67.9546 120.545 67.9546H126.454C131.316 67.9546 135.277 71.89 135.318 76.7414C132.87 76.4874 130.616 75.6024 128.858 74.1886C128.864 74.2019 128.865 74.2078 128.871 74.2211C128.4 73.8251 127.723 73.7396 127.169 74.0749C124.072 75.9451 120.176 77.2614 115.902 77.8862C115.096 78.0029 114.536 78.7535 114.654 79.5615C114.76 80.2957 115.392 80.8246 116.113 80.8246C116.184 80.8246 116.257 80.8201 116.329 80.8083C120.607 80.1849 124.531 78.8805 127.804 77.0737C129.945 78.5554 132.542 79.4669 135.318 79.7062V81.25C135.318 83.9622 134.216 90.8907 134.194 91.0281C134.115 91.7253 133.937 92.4033 133.712 93.0682H127.796C127.49 92.2099 126.677 91.591 125.716 91.591H121.284C120.062 91.591 119.068 92.5851 119.068 93.8069C119.068 95.0286 120.062 96.0229 121.284 96.0229H123.5H125.716H136.795C139.239 96.0229 141.227 94.0344 141.227 91.5911V88.9615C142.127 88.1505 142.704 86.9864 142.704 85.6819V82.7274C142.704 80.2839 140.716 78.2954 138.273 78.2954ZM108.727 87.159C107.912 87.159 107.25 86.4972 107.25 85.6818V82.7272C107.25 81.9118 107.912 81.25 108.727 81.25V87.159ZM138.273 91.591C138.273 92.4019 137.615 93.0608 136.804 93.0668C136.943 92.5187 137.061 91.9707 137.122 91.4285C137.134 91.3546 137.213 90.8597 137.324 90.1137H138.273V91.591ZM139.75 85.6818C139.75 86.4972 139.088 87.159 138.273 87.159V81.25C139.088 81.25 139.75 81.9118 139.75 82.7272V85.6818Z" fill="white"/>
<defs>
<filter id="filter0_dd_87_5" x="0" y="0.783691" width="248" height="165" filterUnits="userSpaceOnUse" color-interpolation-filters="sRGB">
<feFlood flood-opacity="0" result="BackgroundImageFix"/>
<feColorMatrix in="SourceAlpha" type="matrix" values="0 0 0 0 0 0 0 0 0 0 0 0 0 0 0 0 0 0 127 0" result="hardAlpha"/>
<feOffset dx="-4" dy="4"/>
<feGaussianBlur stdDeviation="10"/>
<feColorMatrix type="matrix" values="0 0 0 0 0 0 0 0 0 0 0 0 0 0 0 0 0 0 0.2 0"/>
<feBlend mode="normal" in2="BackgroundImageFix" result="effect1_dropShadow_87_5"/>
<feColorMatrix in="SourceAlpha" type="matrix" values="0 0 0 0 0 0 0 0 0 0 0 0 0 0 0 0 0 0 127 0" result="hardAlpha"/>
<feOffset dx="4" dy="4"/>
<feGaussianBlur stdDeviation="10"/>
<feColorMatrix type="matrix" values="0 0 0 0 0 0 0 0 0 0 0 0 0 0 0 0 0 0 0.2 0"/>
<feBlend mode="normal" in2="effect1_dropShadow_87_5" result="effect2_dropShadow_87_5"/>
<feBlend mode="normal" in="SourceGraphic" in2="effect2_dropShadow_87_5" result="shape"/>
</filter>
</defs>
</svg>
